<mxfile host="app.diagrams.net" agent="Mozilla/5.0 (Windows NT 10.0; Win64; x64) AppleWebKit/537.36 (KHTML, like Gecko) Chrome/129.0.0.0 Safari/537.36" version="24.7.16">
  <diagram name="PÃ¡gina-1" id="EsEq_GemCrx0lwc4HN4x">
    <mxGraphModel dx="2261" dy="750" grid="1" gridSize="10" guides="1" tooltips="1" connect="1" arrows="1" fold="1" page="1" pageScale="1" pageWidth="827" pageHeight="1169" math="0" shadow="0">
      <root>
        <mxCell id="0" />
        <mxCell id="1" parent="0" />
        <mxCell id="v4sZzy8NRBBGQ352nRPt-2" value="&lt;span id=&quot;docs-internal-guid-69e3b1c1-7fff-f96b-01ed-a3625c471818&quot;&gt;&lt;span style=&quot;font-size: 12pt; font-family: Calibri, sans-serif; background-color: transparent; font-variant-numeric: normal; font-variant-east-asian: normal; font-variant-alternates: normal; font-variant-position: normal; vertical-align: baseline; white-space-collapse: preserve;&quot;&gt;FILME &lt;/span&gt;&lt;/span&gt;" style="whiteSpace=wrap;html=1;align=center;" vertex="1" parent="1">
          <mxGeometry x="130" y="150" width="100" height="40" as="geometry" />
        </mxCell>
        <mxCell id="v4sZzy8NRBBGQ352nRPt-3" value="&lt;span id=&quot;docs-internal-guid-65ec9e01-7fff-6a85-273b-d0137325ad9c&quot;&gt;&lt;span style=&quot;font-size: 12pt; font-family: Calibri, sans-serif; background-color: transparent; font-variant-numeric: normal; font-variant-east-asian: normal; font-variant-alternates: normal; font-variant-position: normal; text-decoration-skip-ink: none; vertical-align: baseline; white-space-collapse: preserve;&quot;&gt;Codigo&lt;/span&gt;&lt;/span&gt;" style="ellipse;whiteSpace=wrap;html=1;align=center;fontStyle=4;" vertex="1" parent="1">
          <mxGeometry x="10" y="150" width="100" height="40" as="geometry" />
        </mxCell>
        <mxCell id="v4sZzy8NRBBGQ352nRPt-4" value="&lt;span id=&quot;docs-internal-guid-aa690023-7fff-4fff-91ab-73ff49e0a470&quot;&gt;&lt;span style=&quot;font-size: 12pt; font-family: Calibri, sans-serif; background-color: transparent; font-variant-numeric: normal; font-variant-east-asian: normal; font-variant-alternates: normal; font-variant-position: normal; vertical-align: baseline; white-space-collapse: preserve;&quot;&gt;Direcao&lt;/span&gt;&lt;/span&gt;" style="ellipse;whiteSpace=wrap;html=1;align=center;" vertex="1" parent="1">
          <mxGeometry x="250" y="150" width="100" height="40" as="geometry" />
        </mxCell>
        <mxCell id="v4sZzy8NRBBGQ352nRPt-5" value="&lt;span id=&quot;docs-internal-guid-b7feeaaa-7fff-33fd-7c4b-e0fa0cc1d46b&quot;&gt;&lt;span style=&quot;font-size: 12pt; font-family: Calibri, sans-serif; background-color: transparent; font-variant-numeric: normal; font-variant-east-asian: normal; font-variant-alternates: normal; font-variant-position: normal; vertical-align: baseline; white-space-collapse: preserve;&quot;&gt;Ano&lt;/span&gt;&lt;/span&gt;" style="ellipse;whiteSpace=wrap;html=1;align=center;" vertex="1" parent="1">
          <mxGeometry x="130" y="210" width="100" height="40" as="geometry" />
        </mxCell>
        <mxCell id="v4sZzy8NRBBGQ352nRPt-6" value="&lt;span id=&quot;docs-internal-guid-4cdd8350-7fff-0cfb-5aa0-43d871383f14&quot;&gt;&lt;span style=&quot;font-size: 12pt; font-family: Calibri, sans-serif; background-color: transparent; font-variant-numeric: normal; font-variant-east-asian: normal; font-variant-alternates: normal; font-variant-position: normal; vertical-align: baseline; white-space-collapse: preserve;&quot;&gt;Titulo&lt;/span&gt;&lt;/span&gt;" style="ellipse;whiteSpace=wrap;html=1;align=center;" vertex="1" parent="1">
          <mxGeometry x="130" y="90" width="100" height="40" as="geometry" />
        </mxCell>
        <mxCell id="v4sZzy8NRBBGQ352nRPt-7" value="" style="endArrow=none;html=1;rounded=0;" edge="1" parent="1" source="v4sZzy8NRBBGQ352nRPt-2" target="v4sZzy8NRBBGQ352nRPt-4">
          <mxGeometry relative="1" as="geometry">
            <mxPoint x="280" y="250" as="sourcePoint" />
            <mxPoint x="440" y="250" as="targetPoint" />
          </mxGeometry>
        </mxCell>
        <mxCell id="v4sZzy8NRBBGQ352nRPt-8" value="" style="endArrow=none;html=1;rounded=0;" edge="1" parent="1" source="v4sZzy8NRBBGQ352nRPt-2" target="v4sZzy8NRBBGQ352nRPt-3">
          <mxGeometry relative="1" as="geometry">
            <mxPoint x="260" y="188" as="sourcePoint" />
            <mxPoint x="286" y="197" as="targetPoint" />
          </mxGeometry>
        </mxCell>
        <mxCell id="v4sZzy8NRBBGQ352nRPt-9" value="" style="endArrow=none;html=1;rounded=0;" edge="1" parent="1" source="v4sZzy8NRBBGQ352nRPt-2" target="v4sZzy8NRBBGQ352nRPt-6">
          <mxGeometry relative="1" as="geometry">
            <mxPoint x="270" y="198" as="sourcePoint" />
            <mxPoint x="296" y="207" as="targetPoint" />
          </mxGeometry>
        </mxCell>
        <mxCell id="v4sZzy8NRBBGQ352nRPt-10" value="" style="endArrow=none;html=1;rounded=0;" edge="1" parent="1" source="v4sZzy8NRBBGQ352nRPt-2" target="v4sZzy8NRBBGQ352nRPt-5">
          <mxGeometry relative="1" as="geometry">
            <mxPoint x="280" y="208" as="sourcePoint" />
            <mxPoint x="306" y="217" as="targetPoint" />
          </mxGeometry>
        </mxCell>
        <mxCell id="v4sZzy8NRBBGQ352nRPt-11" value="&lt;span id=&quot;docs-internal-guid-b55ff3dd-7fff-478e-bd8e-29ca72c5dbbd&quot;&gt;&lt;span style=&quot;font-size: 12pt; font-family: Calibri, sans-serif; background-color: transparent; font-variant-numeric: normal; font-variant-east-asian: normal; font-variant-alternates: normal; font-variant-position: normal; vertical-align: baseline; white-space-collapse: preserve;&quot;&gt;ATOR &lt;/span&gt;&lt;/span&gt;" style="whiteSpace=wrap;html=1;align=center;" vertex="1" parent="1">
          <mxGeometry x="130" y="390" width="100" height="40" as="geometry" />
        </mxCell>
        <mxCell id="v4sZzy8NRBBGQ352nRPt-12" value="&lt;span id=&quot;docs-internal-guid-977f0507-7fff-630e-c32f-fd584b5b6c39&quot;&gt;&lt;span style=&quot;font-size: 12pt; font-family: Calibri, sans-serif; background-color: transparent; font-variant-numeric: normal; font-variant-east-asian: normal; font-variant-alternates: normal; font-variant-position: normal; text-decoration-skip-ink: none; vertical-align: baseline; white-space-collapse: preserve;&quot;&gt;NContribuinte&lt;/span&gt;&lt;/span&gt;" style="ellipse;whiteSpace=wrap;html=1;align=center;fontStyle=4;" vertex="1" parent="1">
          <mxGeometry y="390" width="120" height="40" as="geometry" />
        </mxCell>
        <mxCell id="v4sZzy8NRBBGQ352nRPt-13" value="&lt;span id=&quot;docs-internal-guid-c31ee256-7fff-db21-6032-26f5b3d5ed93&quot;&gt;&lt;span style=&quot;font-size: 12pt; font-family: Calibri, sans-serif; background-color: transparent; font-variant-numeric: normal; font-variant-east-asian: normal; font-variant-alternates: normal; font-variant-position: normal; vertical-align: baseline; white-space-collapse: preserve;&quot;&gt;Nome&lt;/span&gt;&lt;/span&gt;" style="ellipse;whiteSpace=wrap;html=1;align=center;" vertex="1" parent="1">
          <mxGeometry x="260" y="460" width="100" height="40" as="geometry" />
        </mxCell>
        <mxCell id="v4sZzy8NRBBGQ352nRPt-14" value="&lt;span id=&quot;docs-internal-guid-6c0eb078-7fff-a711-845f-558f71afd7b7&quot;&gt;&lt;span style=&quot;font-size: 12pt; font-family: Calibri, sans-serif; background-color: transparent; font-variant-numeric: normal; font-variant-east-asian: normal; font-variant-alternates: normal; font-variant-position: normal; vertical-align: baseline; white-space-collapse: preserve;&quot;&gt;DataNascimento&lt;/span&gt;&lt;/span&gt;" style="ellipse;whiteSpace=wrap;html=1;align=center;" vertex="1" parent="1">
          <mxGeometry x="250" y="390" width="136" height="40" as="geometry" />
        </mxCell>
        <mxCell id="v4sZzy8NRBBGQ352nRPt-15" value="&lt;span id=&quot;docs-internal-guid-f9e64c5f-7fff-8cbe-bb85-ed389d6dbb94&quot;&gt;&lt;span style=&quot;font-size: 12pt; font-family: Calibri, sans-serif; background-color: transparent; font-variant-numeric: normal; font-variant-east-asian: normal; font-variant-alternates: normal; font-variant-position: normal; vertical-align: baseline; white-space-collapse: preserve;&quot;&gt;Salario&lt;/span&gt;&lt;/span&gt;" style="ellipse;whiteSpace=wrap;html=1;align=center;" vertex="1" parent="1">
          <mxGeometry x="130" y="320" width="100" height="40" as="geometry" />
        </mxCell>
        <mxCell id="v4sZzy8NRBBGQ352nRPt-16" value="" style="endArrow=none;html=1;rounded=0;" edge="1" parent="1" source="v4sZzy8NRBBGQ352nRPt-11" target="v4sZzy8NRBBGQ352nRPt-13">
          <mxGeometry relative="1" as="geometry">
            <mxPoint x="280" y="490" as="sourcePoint" />
            <mxPoint x="440" y="490" as="targetPoint" />
          </mxGeometry>
        </mxCell>
        <mxCell id="v4sZzy8NRBBGQ352nRPt-17" value="" style="endArrow=none;html=1;rounded=0;" edge="1" parent="1" source="v4sZzy8NRBBGQ352nRPt-11" target="v4sZzy8NRBBGQ352nRPt-12">
          <mxGeometry relative="1" as="geometry">
            <mxPoint x="260" y="428" as="sourcePoint" />
            <mxPoint x="286" y="437" as="targetPoint" />
          </mxGeometry>
        </mxCell>
        <mxCell id="v4sZzy8NRBBGQ352nRPt-18" value="" style="endArrow=none;html=1;rounded=0;" edge="1" parent="1" source="v4sZzy8NRBBGQ352nRPt-11" target="v4sZzy8NRBBGQ352nRPt-15">
          <mxGeometry relative="1" as="geometry">
            <mxPoint x="270" y="438" as="sourcePoint" />
            <mxPoint x="296" y="447" as="targetPoint" />
          </mxGeometry>
        </mxCell>
        <mxCell id="v4sZzy8NRBBGQ352nRPt-19" value="" style="endArrow=none;html=1;rounded=0;" edge="1" parent="1" source="v4sZzy8NRBBGQ352nRPt-11" target="v4sZzy8NRBBGQ352nRPt-14">
          <mxGeometry relative="1" as="geometry">
            <mxPoint x="280" y="448" as="sourcePoint" />
            <mxPoint x="306" y="457" as="targetPoint" />
          </mxGeometry>
        </mxCell>
        <mxCell id="v4sZzy8NRBBGQ352nRPt-20" value="&lt;span id=&quot;docs-internal-guid-b9814e67-7fff-4241-7005-b38a2bdebb96&quot;&gt;&lt;span style=&quot;font-size: 12pt; font-family: Calibri, sans-serif; background-color: transparent; font-variant-numeric: normal; font-variant-east-asian: normal; font-variant-alternates: normal; font-variant-position: normal; vertical-align: baseline; white-space-collapse: preserve;&quot;&gt;Idade &lt;/span&gt;&lt;/span&gt;" style="ellipse;whiteSpace=wrap;html=1;align=center;dashed=1;" vertex="1" parent="1">
          <mxGeometry x="130" y="460" width="100" height="40" as="geometry" />
        </mxCell>
        <mxCell id="v4sZzy8NRBBGQ352nRPt-21" value="" style="endArrow=none;html=1;rounded=0;dashed=1;dashPattern=1 2;" edge="1" parent="1" source="v4sZzy8NRBBGQ352nRPt-11" target="v4sZzy8NRBBGQ352nRPt-20">
          <mxGeometry relative="1" as="geometry">
            <mxPoint x="330" y="390" as="sourcePoint" />
            <mxPoint x="490" y="390" as="targetPoint" />
          </mxGeometry>
        </mxCell>
        <mxCell id="v4sZzy8NRBBGQ352nRPt-23" value="&lt;span id=&quot;docs-internal-guid-4d9d8930-7fff-5aef-027f-57d90c32c15b&quot;&gt;&lt;span style=&quot;font-size: 12pt; font-family: Calibri, sans-serif; background-color: transparent; font-variant-numeric: normal; font-variant-east-asian: normal; font-variant-alternates: normal; font-variant-position: normal; vertical-align: baseline; white-space-collapse: preserve;&quot;&gt;REALIZADOR &lt;/span&gt;&lt;/span&gt;" style="whiteSpace=wrap;html=1;align=center;" vertex="1" parent="1">
          <mxGeometry x="570" y="130" width="100" height="40" as="geometry" />
        </mxCell>
        <mxCell id="v4sZzy8NRBBGQ352nRPt-24" value="&lt;span id=&quot;docs-internal-guid-977f0507-7fff-630e-c32f-fd584b5b6c39&quot;&gt;&lt;span style=&quot;font-size: 12pt; font-family: Calibri, sans-serif; background-color: transparent; font-variant-numeric: normal; font-variant-east-asian: normal; font-variant-alternates: normal; font-variant-position: normal; text-decoration-skip-ink: none; vertical-align: baseline; white-space-collapse: preserve;&quot;&gt;NContribuinte&lt;/span&gt;&lt;/span&gt;" style="ellipse;whiteSpace=wrap;html=1;align=center;fontStyle=4;" vertex="1" parent="1">
          <mxGeometry x="430" y="130" width="120" height="40" as="geometry" />
        </mxCell>
        <mxCell id="v4sZzy8NRBBGQ352nRPt-25" value="&lt;span id=&quot;docs-internal-guid-c31ee256-7fff-db21-6032-26f5b3d5ed93&quot;&gt;&lt;span style=&quot;font-size: 12pt; font-family: Calibri, sans-serif; background-color: transparent; font-variant-numeric: normal; font-variant-east-asian: normal; font-variant-alternates: normal; font-variant-position: normal; vertical-align: baseline; white-space-collapse: preserve;&quot;&gt;Nome&lt;/span&gt;&lt;/span&gt;" style="ellipse;whiteSpace=wrap;html=1;align=center;" vertex="1" parent="1">
          <mxGeometry x="686" y="130" width="100" height="40" as="geometry" />
        </mxCell>
        <mxCell id="v4sZzy8NRBBGQ352nRPt-26" value="&lt;span id=&quot;docs-internal-guid-6c0eb078-7fff-a711-845f-558f71afd7b7&quot;&gt;&lt;span style=&quot;font-size: 12pt; font-family: Calibri, sans-serif; background-color: transparent; font-variant-numeric: normal; font-variant-east-asian: normal; font-variant-alternates: normal; font-variant-position: normal; vertical-align: baseline; white-space-collapse: preserve;&quot;&gt;DataNascimento&lt;/span&gt;&lt;/span&gt;" style="ellipse;whiteSpace=wrap;html=1;align=center;" vertex="1" parent="1">
          <mxGeometry x="550" y="70" width="136" height="40" as="geometry" />
        </mxCell>
        <mxCell id="v4sZzy8NRBBGQ352nRPt-28" value="" style="endArrow=none;html=1;rounded=0;" edge="1" parent="1" source="v4sZzy8NRBBGQ352nRPt-23" target="v4sZzy8NRBBGQ352nRPt-25">
          <mxGeometry relative="1" as="geometry">
            <mxPoint x="720" y="230" as="sourcePoint" />
            <mxPoint x="880" y="230" as="targetPoint" />
          </mxGeometry>
        </mxCell>
        <mxCell id="v4sZzy8NRBBGQ352nRPt-29" value="" style="endArrow=none;html=1;rounded=0;" edge="1" parent="1" source="v4sZzy8NRBBGQ352nRPt-23" target="v4sZzy8NRBBGQ352nRPt-24">
          <mxGeometry relative="1" as="geometry">
            <mxPoint x="700" y="168" as="sourcePoint" />
            <mxPoint x="726" y="177" as="targetPoint" />
          </mxGeometry>
        </mxCell>
        <mxCell id="v4sZzy8NRBBGQ352nRPt-31" value="" style="endArrow=none;html=1;rounded=0;" edge="1" parent="1" source="v4sZzy8NRBBGQ352nRPt-23" target="v4sZzy8NRBBGQ352nRPt-26">
          <mxGeometry relative="1" as="geometry">
            <mxPoint x="720" y="188" as="sourcePoint" />
            <mxPoint x="746" y="197" as="targetPoint" />
          </mxGeometry>
        </mxCell>
        <mxCell id="v4sZzy8NRBBGQ352nRPt-32" value="&lt;span id=&quot;docs-internal-guid-b9814e67-7fff-4241-7005-b38a2bdebb96&quot;&gt;&lt;span style=&quot;font-size: 12pt; font-family: Calibri, sans-serif; background-color: transparent; font-variant-numeric: normal; font-variant-east-asian: normal; font-variant-alternates: normal; font-variant-position: normal; vertical-align: baseline; white-space-collapse: preserve;&quot;&gt;Idade &lt;/span&gt;&lt;/span&gt;" style="ellipse;whiteSpace=wrap;html=1;align=center;dashed=1;" vertex="1" parent="1">
          <mxGeometry x="570" y="200" width="100" height="40" as="geometry" />
        </mxCell>
        <mxCell id="v4sZzy8NRBBGQ352nRPt-33" value="" style="endArrow=none;html=1;rounded=0;dashed=1;dashPattern=1 2;" edge="1" parent="1" source="v4sZzy8NRBBGQ352nRPt-23" target="v4sZzy8NRBBGQ352nRPt-32">
          <mxGeometry relative="1" as="geometry">
            <mxPoint x="770" y="130" as="sourcePoint" />
            <mxPoint x="930" y="130" as="targetPoint" />
          </mxGeometry>
        </mxCell>
        <mxCell id="v4sZzy8NRBBGQ352nRPt-43" value="&lt;span id=&quot;docs-internal-guid-b4841088-7fff-76e5-b48b-d23ce806d1a9&quot;&gt;&lt;span style=&quot;font-size: 12pt; font-family: Calibri, sans-serif; background-color: transparent; font-variant-numeric: normal; font-variant-east-asian: normal; font-variant-alternates: normal; font-variant-position: normal; vertical-align: baseline; white-space-collapse: preserve;&quot;&gt;PRODUTOR &lt;/span&gt;&lt;/span&gt;" style="whiteSpace=wrap;html=1;align=center;" vertex="1" parent="1">
          <mxGeometry x="580" y="350" width="100" height="40" as="geometry" />
        </mxCell>
        <mxCell id="v4sZzy8NRBBGQ352nRPt-44" value="&lt;span id=&quot;docs-internal-guid-977f0507-7fff-630e-c32f-fd584b5b6c39&quot;&gt;&lt;span style=&quot;font-size: 12pt; font-family: Calibri, sans-serif; background-color: transparent; font-variant-numeric: normal; font-variant-east-asian: normal; font-variant-alternates: normal; font-variant-position: normal; text-decoration-skip-ink: none; vertical-align: baseline; white-space-collapse: preserve;&quot;&gt;NContribuinte&lt;/span&gt;&lt;/span&gt;" style="ellipse;whiteSpace=wrap;html=1;align=center;fontStyle=4;" vertex="1" parent="1">
          <mxGeometry x="440" y="350" width="120" height="40" as="geometry" />
        </mxCell>
        <mxCell id="v4sZzy8NRBBGQ352nRPt-45" value="&lt;span id=&quot;docs-internal-guid-c31ee256-7fff-db21-6032-26f5b3d5ed93&quot;&gt;&lt;span style=&quot;font-size: 12pt; font-family: Calibri, sans-serif; background-color: transparent; font-variant-numeric: normal; font-variant-east-asian: normal; font-variant-alternates: normal; font-variant-position: normal; vertical-align: baseline; white-space-collapse: preserve;&quot;&gt;Nome&lt;/span&gt;&lt;/span&gt;" style="ellipse;whiteSpace=wrap;html=1;align=center;" vertex="1" parent="1">
          <mxGeometry x="696" y="350" width="100" height="40" as="geometry" />
        </mxCell>
        <mxCell id="v4sZzy8NRBBGQ352nRPt-46" value="&lt;span id=&quot;docs-internal-guid-6c0eb078-7fff-a711-845f-558f71afd7b7&quot;&gt;&lt;span style=&quot;font-size: 12pt; font-family: Calibri, sans-serif; background-color: transparent; font-variant-numeric: normal; font-variant-east-asian: normal; font-variant-alternates: normal; font-variant-position: normal; vertical-align: baseline; white-space-collapse: preserve;&quot;&gt;DataNascimento&lt;/span&gt;&lt;/span&gt;" style="ellipse;whiteSpace=wrap;html=1;align=center;" vertex="1" parent="1">
          <mxGeometry x="560" y="290" width="136" height="40" as="geometry" />
        </mxCell>
        <mxCell id="v4sZzy8NRBBGQ352nRPt-47" value="" style="endArrow=none;html=1;rounded=0;" edge="1" parent="1" source="v4sZzy8NRBBGQ352nRPt-43" target="v4sZzy8NRBBGQ352nRPt-45">
          <mxGeometry relative="1" as="geometry">
            <mxPoint x="730" y="450" as="sourcePoint" />
            <mxPoint x="890" y="450" as="targetPoint" />
          </mxGeometry>
        </mxCell>
        <mxCell id="v4sZzy8NRBBGQ352nRPt-48" value="" style="endArrow=none;html=1;rounded=0;" edge="1" parent="1" source="v4sZzy8NRBBGQ352nRPt-43" target="v4sZzy8NRBBGQ352nRPt-44">
          <mxGeometry relative="1" as="geometry">
            <mxPoint x="710" y="388" as="sourcePoint" />
            <mxPoint x="736" y="397" as="targetPoint" />
          </mxGeometry>
        </mxCell>
        <mxCell id="v4sZzy8NRBBGQ352nRPt-49" value="" style="endArrow=none;html=1;rounded=0;" edge="1" parent="1" source="v4sZzy8NRBBGQ352nRPt-43" target="v4sZzy8NRBBGQ352nRPt-46">
          <mxGeometry relative="1" as="geometry">
            <mxPoint x="730" y="408" as="sourcePoint" />
            <mxPoint x="756" y="417" as="targetPoint" />
          </mxGeometry>
        </mxCell>
        <mxCell id="v4sZzy8NRBBGQ352nRPt-50" value="&lt;span id=&quot;docs-internal-guid-b9814e67-7fff-4241-7005-b38a2bdebb96&quot;&gt;&lt;span style=&quot;font-size: 12pt; font-family: Calibri, sans-serif; background-color: transparent; font-variant-numeric: normal; font-variant-east-asian: normal; font-variant-alternates: normal; font-variant-position: normal; vertical-align: baseline; white-space-collapse: preserve;&quot;&gt;Idade &lt;/span&gt;&lt;/span&gt;" style="ellipse;whiteSpace=wrap;html=1;align=center;dashed=1;" vertex="1" parent="1">
          <mxGeometry x="580" y="420" width="100" height="40" as="geometry" />
        </mxCell>
        <mxCell id="v4sZzy8NRBBGQ352nRPt-51" value="" style="endArrow=none;html=1;rounded=0;dashed=1;dashPattern=1 2;" edge="1" parent="1" source="v4sZzy8NRBBGQ352nRPt-43" target="v4sZzy8NRBBGQ352nRPt-50">
          <mxGeometry relative="1" as="geometry">
            <mxPoint x="780" y="350" as="sourcePoint" />
            <mxPoint x="940" y="350" as="targetPoint" />
          </mxGeometry>
        </mxCell>
        <mxCell id="v4sZzy8NRBBGQ352nRPt-52" value="&lt;span id=&quot;docs-internal-guid-409b3797-7fff-d025-ef7b-313acdf6c6c4&quot;&gt;&lt;span style=&quot;font-size: 12pt; font-family: Calibri, sans-serif; background-color: transparent; font-variant-numeric: normal; font-variant-east-asian: normal; font-variant-alternates: normal; font-variant-position: normal; vertical-align: baseline; white-space-collapse: preserve;&quot;&gt;ORCAMENTO &lt;/span&gt;&lt;/span&gt;" style="whiteSpace=wrap;html=1;align=center;" vertex="1" parent="1">
          <mxGeometry x="420" y="565" width="100" height="40" as="geometry" />
        </mxCell>
        <mxCell id="v4sZzy8NRBBGQ352nRPt-53" value="&lt;span id=&quot;docs-internal-guid-6a297033-7fff-ead5-8e38-853e0f813def&quot;&gt;&lt;span style=&quot;font-size: 12pt; font-family: Calibri, sans-serif; background-color: transparent; font-variant-numeric: normal; font-variant-east-asian: normal; font-variant-alternates: normal; font-variant-position: normal; text-decoration-skip-ink: none; vertical-align: baseline; white-space-collapse: preserve;&quot;&gt;Id&lt;/span&gt;&lt;/span&gt;" style="ellipse;whiteSpace=wrap;html=1;align=center;fontStyle=4;" vertex="1" parent="1">
          <mxGeometry x="290" y="625" width="120" height="40" as="geometry" />
        </mxCell>
        <mxCell id="v4sZzy8NRBBGQ352nRPt-54" value="&lt;span id=&quot;docs-internal-guid-52b77928-7fff-11a8-607f-078c2612696d&quot;&gt;&lt;span style=&quot;font-size: 12pt; font-family: Calibri, sans-serif; background-color: transparent; font-variant-numeric: normal; font-variant-east-asian: normal; font-variant-alternates: normal; font-variant-position: normal; vertical-align: baseline; white-space-collapse: preserve;&quot;&gt;Valor&lt;/span&gt;&lt;/span&gt;" style="ellipse;whiteSpace=wrap;html=1;align=center;" vertex="1" parent="1">
          <mxGeometry x="530" y="625" width="100" height="40" as="geometry" />
        </mxCell>
        <mxCell id="v4sZzy8NRBBGQ352nRPt-55" value="&lt;span id=&quot;docs-internal-guid-054a91c2-7fff-2da7-2222-386cf80ee31c&quot;&gt;&lt;span style=&quot;font-size: 12pt; font-family: Calibri, sans-serif; background-color: transparent; font-variant-numeric: normal; font-variant-east-asian: normal; font-variant-alternates: normal; font-variant-position: normal; vertical-align: baseline; white-space-collapse: preserve;&quot;&gt;Aprovado?&lt;/span&gt;&lt;/span&gt;" style="ellipse;whiteSpace=wrap;html=1;align=center;" vertex="1" parent="1">
          <mxGeometry x="400" y="505" width="136" height="40" as="geometry" />
        </mxCell>
        <mxCell id="v4sZzy8NRBBGQ352nRPt-56" value="" style="endArrow=none;html=1;rounded=0;" edge="1" parent="1" source="v4sZzy8NRBBGQ352nRPt-52" target="v4sZzy8NRBBGQ352nRPt-54">
          <mxGeometry relative="1" as="geometry">
            <mxPoint x="570" y="665" as="sourcePoint" />
            <mxPoint x="730" y="665" as="targetPoint" />
          </mxGeometry>
        </mxCell>
        <mxCell id="v4sZzy8NRBBGQ352nRPt-57" value="" style="endArrow=none;html=1;rounded=0;" edge="1" parent="1" source="v4sZzy8NRBBGQ352nRPt-52" target="v4sZzy8NRBBGQ352nRPt-53">
          <mxGeometry relative="1" as="geometry">
            <mxPoint x="550" y="603" as="sourcePoint" />
            <mxPoint x="576" y="612" as="targetPoint" />
          </mxGeometry>
        </mxCell>
        <mxCell id="v4sZzy8NRBBGQ352nRPt-58" value="" style="endArrow=none;html=1;rounded=0;" edge="1" parent="1" source="v4sZzy8NRBBGQ352nRPt-52" target="v4sZzy8NRBBGQ352nRPt-55">
          <mxGeometry relative="1" as="geometry">
            <mxPoint x="570" y="623" as="sourcePoint" />
            <mxPoint x="596" y="632" as="targetPoint" />
          </mxGeometry>
        </mxCell>
        <mxCell id="v4sZzy8NRBBGQ352nRPt-66" value="&lt;span id=&quot;docs-internal-guid-69e3b1c1-7fff-f96b-01ed-a3625c471818&quot;&gt;&lt;span style=&quot;font-size: 12pt; font-family: Calibri, sans-serif; background-color: transparent; font-variant-numeric: normal; font-variant-east-asian: normal; font-variant-alternates: normal; font-variant-position: normal; vertical-align: baseline; white-space-collapse: preserve;&quot;&gt;FILME &lt;/span&gt;&lt;/span&gt;" style="whiteSpace=wrap;html=1;align=center;" vertex="1" parent="1">
          <mxGeometry x="370" y="940" width="100" height="40" as="geometry" />
        </mxCell>
        <mxCell id="v4sZzy8NRBBGQ352nRPt-67" value="&lt;span id=&quot;docs-internal-guid-b55ff3dd-7fff-478e-bd8e-29ca72c5dbbd&quot;&gt;&lt;span style=&quot;font-size: 12pt; font-family: Calibri, sans-serif; background-color: transparent; font-variant-numeric: normal; font-variant-east-asian: normal; font-variant-alternates: normal; font-variant-position: normal; vertical-align: baseline; white-space-collapse: preserve;&quot;&gt;ATOR &lt;/span&gt;&lt;/span&gt;" style="whiteSpace=wrap;html=1;align=center;" vertex="1" parent="1">
          <mxGeometry x="370" y="1170" width="100" height="40" as="geometry" />
        </mxCell>
        <mxCell id="v4sZzy8NRBBGQ352nRPt-68" value="&lt;span id=&quot;docs-internal-guid-4d9d8930-7fff-5aef-027f-57d90c32c15b&quot;&gt;&lt;span style=&quot;font-size: 12pt; font-family: Calibri, sans-serif; background-color: transparent; font-variant-numeric: normal; font-variant-east-asian: normal; font-variant-alternates: normal; font-variant-position: normal; vertical-align: baseline; white-space-collapse: preserve;&quot;&gt;REALIZADOR &lt;/span&gt;&lt;/span&gt;" style="whiteSpace=wrap;html=1;align=center;" vertex="1" parent="1">
          <mxGeometry x="720" y="940" width="130" height="40" as="geometry" />
        </mxCell>
        <mxCell id="v4sZzy8NRBBGQ352nRPt-69" value="&lt;span id=&quot;docs-internal-guid-b4841088-7fff-76e5-b48b-d23ce806d1a9&quot;&gt;&lt;span style=&quot;font-size: 12pt; font-family: Calibri, sans-serif; background-color: transparent; font-variant-numeric: normal; font-variant-east-asian: normal; font-variant-alternates: normal; font-variant-position: normal; vertical-align: baseline; white-space-collapse: preserve;&quot;&gt;PRODUTOR &lt;/span&gt;&lt;/span&gt;" style="whiteSpace=wrap;html=1;align=center;" vertex="1" parent="1">
          <mxGeometry x="370" y="690" width="100" height="40" as="geometry" />
        </mxCell>
        <mxCell id="v4sZzy8NRBBGQ352nRPt-70" value="&lt;span id=&quot;docs-internal-guid-409b3797-7fff-d025-ef7b-313acdf6c6c4&quot;&gt;&lt;span style=&quot;font-size: 12pt; font-family: Calibri, sans-serif; background-color: transparent; font-variant-numeric: normal; font-variant-east-asian: normal; font-variant-alternates: normal; font-variant-position: normal; vertical-align: baseline; white-space-collapse: preserve;&quot;&gt;ORCAMENTO &lt;/span&gt;&lt;/span&gt;" style="whiteSpace=wrap;html=1;align=center;" vertex="1" parent="1">
          <mxGeometry x="-30" y="940" width="100" height="40" as="geometry" />
        </mxCell>
        <mxCell id="v4sZzy8NRBBGQ352nRPt-71" value="&lt;span id=&quot;docs-internal-guid-3e9d4672-7fff-fb9d-4e25-5c9ecaefa336&quot;&gt;&lt;span style=&quot;font-size: 12pt; font-family: Calibri, sans-serif; background-color: transparent; font-variant-numeric: normal; font-variant-east-asian: normal; font-variant-alternates: normal; font-variant-position: normal; vertical-align: baseline; white-space-collapse: preserve;&quot;&gt;ENTRA_EM &lt;/span&gt;&lt;/span&gt;" style="shape=rhombus;perimeter=rhombusPerimeter;whiteSpace=wrap;html=1;align=center;" vertex="1" parent="1">
          <mxGeometry x="360" y="1040" width="120" height="60" as="geometry" />
        </mxCell>
        <mxCell id="v4sZzy8NRBBGQ352nRPt-74" value="" style="endArrow=none;html=1;rounded=0;" edge="1" parent="1" source="v4sZzy8NRBBGQ352nRPt-71" target="v4sZzy8NRBBGQ352nRPt-67">
          <mxGeometry relative="1" as="geometry">
            <mxPoint x="580" y="1120" as="sourcePoint" />
            <mxPoint x="740" y="1120" as="targetPoint" />
          </mxGeometry>
        </mxCell>
        <mxCell id="v4sZzy8NRBBGQ352nRPt-75" value="N" style="resizable=0;html=1;whiteSpace=wrap;align=right;verticalAlign=bottom;" connectable="0" vertex="1" parent="v4sZzy8NRBBGQ352nRPt-74">
          <mxGeometry x="1" relative="1" as="geometry" />
        </mxCell>
        <mxCell id="v4sZzy8NRBBGQ352nRPt-76" value="" style="shape=link;html=1;rounded=0;" edge="1" parent="1" source="v4sZzy8NRBBGQ352nRPt-71" target="v4sZzy8NRBBGQ352nRPt-66">
          <mxGeometry relative="1" as="geometry">
            <mxPoint x="580" y="1120" as="sourcePoint" />
            <mxPoint x="740" y="1120" as="targetPoint" />
          </mxGeometry>
        </mxCell>
        <mxCell id="v4sZzy8NRBBGQ352nRPt-77" value="M" style="resizable=0;html=1;whiteSpace=wrap;align=right;verticalAlign=bottom;" connectable="0" vertex="1" parent="v4sZzy8NRBBGQ352nRPt-76">
          <mxGeometry x="1" relative="1" as="geometry">
            <mxPoint x="-10" y="20" as="offset" />
          </mxGeometry>
        </mxCell>
        <mxCell id="v4sZzy8NRBBGQ352nRPt-78" value="&lt;span id=&quot;docs-internal-guid-d4102d6b-7fff-9814-01a8-bcb57fba161c&quot;&gt;&lt;span style=&quot;font-size: 12pt; font-family: Calibri, sans-serif; background-color: transparent; font-variant-numeric: normal; font-variant-east-asian: normal; font-variant-alternates: normal; font-variant-position: normal; vertical-align: baseline; white-space-collapse: preserve;&quot;&gt;REALIZA &lt;/span&gt;&lt;/span&gt;" style="shape=rhombus;perimeter=rhombusPerimeter;whiteSpace=wrap;html=1;align=center;" vertex="1" parent="1">
          <mxGeometry x="536" y="930" width="120" height="60" as="geometry" />
        </mxCell>
        <mxCell id="v4sZzy8NRBBGQ352nRPt-79" value="" style="endArrow=none;html=1;rounded=0;" edge="1" parent="1" source="v4sZzy8NRBBGQ352nRPt-78" target="v4sZzy8NRBBGQ352nRPt-68">
          <mxGeometry relative="1" as="geometry">
            <mxPoint x="580" y="1120" as="sourcePoint" />
            <mxPoint x="740" y="1120" as="targetPoint" />
          </mxGeometry>
        </mxCell>
        <mxCell id="v4sZzy8NRBBGQ352nRPt-80" value="1" style="resizable=0;html=1;whiteSpace=wrap;align=right;verticalAlign=bottom;" connectable="0" vertex="1" parent="v4sZzy8NRBBGQ352nRPt-79">
          <mxGeometry x="1" relative="1" as="geometry" />
        </mxCell>
        <mxCell id="v4sZzy8NRBBGQ352nRPt-81" value="" style="shape=link;html=1;rounded=0;" edge="1" parent="1" source="v4sZzy8NRBBGQ352nRPt-78" target="v4sZzy8NRBBGQ352nRPt-66">
          <mxGeometry relative="1" as="geometry">
            <mxPoint x="624.364409448819" y="979.9977952755906" as="sourcePoint" />
            <mxPoint x="460" y="970" as="targetPoint" />
          </mxGeometry>
        </mxCell>
        <mxCell id="v4sZzy8NRBBGQ352nRPt-82" value="1" style="resizable=0;html=1;whiteSpace=wrap;align=right;verticalAlign=bottom;" connectable="0" vertex="1" parent="v4sZzy8NRBBGQ352nRPt-81">
          <mxGeometry x="1" relative="1" as="geometry">
            <mxPoint x="10" y="-5" as="offset" />
          </mxGeometry>
        </mxCell>
        <mxCell id="v4sZzy8NRBBGQ352nRPt-84" value="&lt;span id=&quot;docs-internal-guid-d4102d6b-7fff-9814-01a8-bcb57fba161c&quot;&gt;&lt;span style=&quot;font-size: 12pt; font-family: Calibri, sans-serif; background-color: transparent; font-variant-numeric: normal; font-variant-east-asian: normal; font-variant-alternates: normal; font-variant-position: normal; vertical-align: baseline; white-space-collapse: preserve;&quot;&gt;PRODUTOR_DE&lt;/span&gt;&lt;/span&gt;" style="shape=rhombus;perimeter=rhombusPerimeter;whiteSpace=wrap;html=1;align=center;" vertex="1" parent="1">
          <mxGeometry x="350" y="800" width="140" height="60" as="geometry" />
        </mxCell>
        <mxCell id="v4sZzy8NRBBGQ352nRPt-85" value="" style="endArrow=none;html=1;rounded=0;" edge="1" parent="1" source="v4sZzy8NRBBGQ352nRPt-84" target="v4sZzy8NRBBGQ352nRPt-69">
          <mxGeometry relative="1" as="geometry">
            <mxPoint x="646" y="990" as="sourcePoint" />
            <mxPoint x="786" y="830" as="targetPoint" />
          </mxGeometry>
        </mxCell>
        <mxCell id="v4sZzy8NRBBGQ352nRPt-86" value="1" style="resizable=0;html=1;whiteSpace=wrap;align=right;verticalAlign=bottom;" connectable="0" vertex="1" parent="v4sZzy8NRBBGQ352nRPt-85">
          <mxGeometry x="1" relative="1" as="geometry">
            <mxPoint x="-1" y="20" as="offset" />
          </mxGeometry>
        </mxCell>
        <mxCell id="v4sZzy8NRBBGQ352nRPt-87" value="" style="shape=link;html=1;rounded=0;" edge="1" parent="1" source="v4sZzy8NRBBGQ352nRPt-84" target="v4sZzy8NRBBGQ352nRPt-66">
          <mxGeometry relative="1" as="geometry">
            <mxPoint x="690.364409448819" y="849.9977952755906" as="sourcePoint" />
            <mxPoint x="536" y="830" as="targetPoint" />
          </mxGeometry>
        </mxCell>
        <mxCell id="v4sZzy8NRBBGQ352nRPt-88" value="1" style="resizable=0;html=1;whiteSpace=wrap;align=right;verticalAlign=bottom;" connectable="0" vertex="1" parent="v4sZzy8NRBBGQ352nRPt-87">
          <mxGeometry x="1" relative="1" as="geometry">
            <mxPoint x="10" y="-5" as="offset" />
          </mxGeometry>
        </mxCell>
        <mxCell id="v4sZzy8NRBBGQ352nRPt-89" value="&lt;span id=&quot;docs-internal-guid-587e5143-7fff-d5d4-f00b-69bfe22eff9b&quot;&gt;&lt;span style=&quot;font-size: 12pt; font-family: Calibri, sans-serif; background-color: transparent; font-variant-numeric: normal; font-variant-east-asian: normal; font-variant-alternates: normal; font-variant-position: normal; vertical-align: baseline; white-space-collapse: preserve;&quot;&gt;POSSUEM &lt;/span&gt;&lt;/span&gt;" style="shape=rhombus;perimeter=rhombusPerimeter;whiteSpace=wrap;html=1;align=center;" vertex="1" parent="1">
          <mxGeometry x="160" y="930" width="140" height="60" as="geometry" />
        </mxCell>
        <mxCell id="v4sZzy8NRBBGQ352nRPt-90" value="" style="shape=link;html=1;rounded=0;" edge="1" parent="1" source="v4sZzy8NRBBGQ352nRPt-89" target="v4sZzy8NRBBGQ352nRPt-66">
          <mxGeometry relative="1" as="geometry">
            <mxPoint x="290" y="1000" as="sourcePoint" />
            <mxPoint x="290" y="1080" as="targetPoint" />
          </mxGeometry>
        </mxCell>
        <mxCell id="v4sZzy8NRBBGQ352nRPt-91" value="1" style="resizable=0;html=1;whiteSpace=wrap;align=right;verticalAlign=bottom;" connectable="0" vertex="1" parent="v4sZzy8NRBBGQ352nRPt-90">
          <mxGeometry x="1" relative="1" as="geometry">
            <mxPoint as="offset" />
          </mxGeometry>
        </mxCell>
        <mxCell id="v4sZzy8NRBBGQ352nRPt-92" value="" style="shape=link;html=1;rounded=0;" edge="1" parent="1" source="v4sZzy8NRBBGQ352nRPt-89" target="v4sZzy8NRBBGQ352nRPt-70">
          <mxGeometry relative="1" as="geometry">
            <mxPoint x="170" y="959.5" as="sourcePoint" />
            <mxPoint x="80" y="959.5" as="targetPoint" />
          </mxGeometry>
        </mxCell>
        <mxCell id="v4sZzy8NRBBGQ352nRPt-93" value="1" style="resizable=0;html=1;whiteSpace=wrap;align=right;verticalAlign=bottom;" connectable="0" vertex="1" parent="v4sZzy8NRBBGQ352nRPt-92">
          <mxGeometry x="1" relative="1" as="geometry">
            <mxPoint x="10" as="offset" />
          </mxGeometry>
        </mxCell>
      </root>
    </mxGraphModel>
  </diagram>
</mxfile>
